<svg width="1440" height="437" viewBox="0 0 1440 437" fill="none" xmlns="http://www.w3.org/2000/svg">
<path fill-rule="evenodd" clip-rule="evenodd" d="M1696.05 -33.9991C1697.17 -33.9852 1698.17 -33.7161 1698.87 -33.3213C1700.29 -32.5213 1700.81 -30.9055 1701.72 -26.8018C1701.96 -25.7023 1701.98 -24.8321 1702.15 -24.5225C1702.32 -24.2141 1702.59 -24.4782 1702.79 -24.7715L1715.92 -16.4268C1735.58 -23.5392 1748.33 -29.109 1750 -32.0733L1748.28 443.236H-312.72V8.0029C-312.286 8.4358 -302.531 8.9497 -288.1 9.4814C-288.466 3.9159 -288.755 -0.9649 -288.903 -4.1163C-289.126 -8.9057 -289.03 -9.6783 -288.886 -9.9454C-288.741 -10.2112 -288.549 -9.9866 -288.374 -9.7041C-287.579 -8.422 -283.767 -7.8135 -281.55 -6.0489C-280.869 -5.5061 -280.542 -4.6299 -280.167 -3.7149C-279.858 -2.9764 -274.843 -7.1026 -270.318 -6.46C-269.518 -6.3452 -266.693 -2.182 -266.797 1.1533L-266.798 1.1728C-266.811 1.5774 -266.826 2.0968 -265.774 1.6777C-259.368 -0.8757 -254.404 -2.511 -252.83 -0.7295C-252.228 -0.0464998 -252.046 1.0358 -251.309 1.3261C-250.839 1.5108 -250.007 1.4991 -249.424 1.4531C-247.875 1.3313 -242.156 5.6228 -237.683 5.6621C-235.897 5.6775 -234.768 4.325 -233.123 4.7294C-231.263 5.1877 -228.31 9.7757 -226.299 8.3505C-224.894 7.354 -223.395 5.8409 -217.134 3.8544C-213.171 2.5971 -209.21 1.1784 -209.654 1.8867C-209.96 2.3763 -210.835 3.2606 -210.408 3.7509C-210.002 4.2172 -207.424 6.1117 -204.92 6.8886C-202.169 7.7429 -197.514 12.364 -194.234 11.8808C-192.9 11.6839 -190.853 10.394 -189.004 9.0029C-188.399 8.5477 -184.92 10.6305 -181.741 11.0117C-180.239 11.1882 -176.834 2.0917 -170.971 7.9414C-169.352 9.5573 -168.31 11.361 -167.521 12.706C-161.48 12.8484 -157.776 12.9407 -157.412 12.9687C-155.004 12.2405 -153.373 11.524 -150.903 12.0488L-151.94 14.5654C-151.807 14.6418 -103.596 40.5887 -100.291 41.9345C-91.3786 45.5644 -79.8991 49.0452 -70.3782 50.8261C-66.7812 51.4987 -63.5335 50.4858 -60.0569 49.6289C-53.7335 59.748 -48.5971 55.8482 -39.8128 62.6709C-38.4928 63.8139 -38.8046 66.386 -38.343 67.709C-37.6308 69.747 -30.4932 73.323 -30.4007 75.119C-29.8917 84.987 -23.5354 84.761 -13.1311 88.612L-14.3362 90.523C-5.12528 97.751 6.03344 98.633 18.7946 106.168C20.5376 105.298 22.0149 104.13 23.5974 104.478C23.3541 105.574 23.3289 105.854 22.7155 106.79H24.9724L23.5027 108.758C24.92 108.38 26.3451 108.025 27.7741 107.693C27.1071 110.092 24.8993 108.434 24.2409 111.698C25.5577 111.548 32.4583 111.252 33.2751 111.65L32.2087 113.273C38.7519 117.188 37.6537 117.945 44.0476 117.425L44.0359 117.764C44.0038 118.912 43.9731 119.243 44.4792 120.326C46.4281 119.55 48.54 118.371 50.4411 119.012C54.3385 124.088 50.018 125.335 55.6325 127.492L57.072 126.778C57.3271 125.237 57.5467 123.941 57.9294 122.427C64.9016 126.379 69.8823 131.065 77.1667 127.614C78.145 127.151 79.4664 127.543 80.4236 128.028L80.7585 128.196C83.5826 129.63 105.226 149.051 111.653 148.899C112.304 148.884 114.093 147.187 114.741 146.59C115.263 147.955 114.841 149.06 114.612 150.656C116.824 150.925 117.89 149.645 118.943 151.192C119.433 151.91 121.475 151.99 122.483 152.146L124.833 149.964L125.379 150.922C124.221 152.083 123.472 152.691 122.173 153.694L122.6 154.198C126.19 153.573 126.073 153.468 127.569 149.917C129.368 147.675 129.095 147.286 131.562 146.525C135.863 147.175 136.434 148.587 139.421 151.991C139.789 153.587 140.085 154.285 139.474 155.78C138.625 156.987 137.81 157.681 137.814 158.95C139.509 158.047 140.972 157.09 142.579 156.057C143.435 159.32 141.659 158.818 142.591 161.95C144.137 161.517 143.683 161.655 144.88 160.345C145.033 161.26 145.107 161.679 145.094 162.606C147.91 162.912 148.645 162.514 150.557 164.131C150.675 166.257 150.554 166.662 149.932 168.716C153.893 169.873 154.14 166.887 157.199 168.448C156.39 169.687 156.092 170.048 154.958 171.162C155.51 173.008 156.505 173.452 158.108 174.494L160.501 174.184L158.308 176.121C160.042 179.221 163.831 177.321 166.903 177.32L168.581 182.783L169.609 183.037L172.431 179.56L173.122 179.556L172.032 182.386C175.581 183.496 179.635 184.253 183.3 186.161C185.055 187.074 185.079 184.311 187.855 186.057C187.53 191.138 185.991 190.555 191.805 192.935C196.014 191.256 194.121 190.007 197.958 190.204L195.34 193.076L195.594 194.574C197.035 194.896 197.235 194.789 198.586 194.199C200.348 196.711 200.392 197.463 203.807 198.106L206.55 197.878C208.987 194.773 208.523 194.873 212.37 193.769L212.783 194.688C209.708 199.035 210.008 195.71 208.411 200.25L209.592 200.364C210.777 198.449 212.845 197.503 214.749 196.429L215.49 196.504C214.029 200.542 211.756 198.016 213.375 201.631C216.009 203.742 217.319 205.106 220.87 203.987L221.666 202.649C221.315 201.544 221.073 200.248 220.245 199.543C221.659 198.723 221.313 198.997 223.345 199.413C227.693 198.773 228.639 193.743 231.887 192.651L233.768 196.033C231.264 198.45 231.418 197.619 230.769 200.703C233.968 200.74 237.684 201.023 240.612 199.854L241.052 198.761C239.951 196.804 237.636 193.356 237.89 191.338C246.157 189.896 253.055 205.542 260.83 201.746C262.518 200.922 266.153 199.587 267.915 200.102C265.248 202.273 262.802 203.9 263.435 207.756L264.71 208.929C267.279 208.57 267.27 208.622 269 206.304L269.701 207.063C271.261 206.501 272.09 206.105 272.924 204.542C275.31 200.068 281.348 202.471 284.189 199.816L279.133 199.226L279.315 198.363C279.853 198.101 280.495 197.848 281.088 197.897C299.462 199.439 301.468 196.321 314.161 209.573H317.004L317.589 207.236V204.236C318.504 194.737 314.938 185.628 313.205 185.282C311.785 181.365 309.504 183.236 310.004 179.236C312.571 178.224 310.876 178.529 313.205 179.236C313.205 181.236 313.205 180.736 314.938 182.308L316.004 185.282L317.629 186.602L318.996 185.628C320.149 180.764 318.996 180.236 319.504 176.736C320.004 176.921 322.275 176.318 322.654 176.736C322.223 180.712 321.451 185.008 321.504 186.736C322.504 187.236 323.755 187.705 325.919 187.18C329.993 184.289 336.474 177.57 339.504 172.736C339.163 168.308 341.259 162.842 342.004 157.236C346.003 154.236 342.504 154.236 343.004 149.736C343.275 148.925 341.309 149.455 341.504 148.736C341.907 147.249 341.004 147.736 343.504 145.236C343.504 142.736 345.504 140.736 347.147 136.41C357.004 134.736 361.004 133.736 364.504 143.736C365.504 139.236 379.051 134.458 388.004 139.236C389.604 141.477 391.504 148.737 392.004 155.236C396.503 157.736 395.004 162.236 395.504 163.736C398.004 165.236 403.011 170.642 403.345 173.43C404.109 179.812 404.503 184.236 402.694 185.111C399.004 186.236 401.372 190.273 402.694 197.428H394.698C394.038 198.329 394.464 199.81 394.597 201.157C392.29 199.911 394.874 197.729 391.762 198.392L390.994 199.938C391.553 201.173 391.932 202.095 392.702 203.222L388.771 208.187C388.799 206.506 388.906 204.991 389.034 203.324L388.257 202.689C377.685 216.331 381.732 218.085 382.819 233.608L380.801 233.823C380.083 235.602 375.312 247.216 375.545 248.2C377.032 254.5 385.715 265.275 393.254 263.868L395.207 261.614C395.439 263.009 394.278 264.701 393.572 266.023L394.818 266.267L397.151 264.591C398.104 265.245 399.322 267.144 399.562 267.286C402.276 268.889 405.625 268.478 407.886 270.621C405.732 270.951 402.586 271.047 402.027 273.818L404.381 273.187L406.171 275.37L409.274 275.286C409.2 277.365 408.725 279.238 410.483 280.836C415.489 285.383 433.83 284.614 439.017 281.189L438.37 283.091C439.759 284.146 448.833 288.064 450.865 287.722C452.414 288.584 452.687 289.042 453.777 290.462L455.065 291.321L457.668 288.431C466.494 293.44 487.114 291.25 496.792 289.567C503.411 288.417 529.238 288.398 533.127 285.486C535.225 281.126 537.222 269.759 538.413 264.299C537.192 262.802 535.353 260.671 534.271 259.156C533.707 254.793 532.004 235.236 533.004 222.236C531.004 215.737 531.976 210.888 532.504 209.736C534.426 207.174 537.004 205.736 541.004 203.236C539.004 201.736 537.504 199.236 537.504 195.236C535.708 193.736 534.682 191.196 534.504 189.236C534.1 186.479 533.845 183.739 535.708 181.426C537.645 179.019 540.214 177.675 543.276 177.403C546.041 177.158 548.955 178.011 551.09 179.808C554.687 182.837 556.325 188.115 556.699 192.655C556.791 193.776 556.743 194.918 556.661 196.037C558.722 197.936 561.794 200.6 563.467 202.705C563.556 202.726 563.639 202.75 563.718 202.77C563.912 202.781 564.137 202.791 564.39 202.808C564.893 202.84 565.327 202.961 565.619 203.034C565.911 203.108 566.045 203.154 566.45 203.28C566.855 203.406 567.528 203.61 568.008 203.786C568.487 203.962 568.755 204.105 569.37 204.479C569.985 204.855 570.939 205.459 571.649 205.869C572.359 206.279 572.796 206.478 573.044 206.59C573.335 206.722 573.431 206.773 573.812 207.1C574.149 207.388 574.756 207.949 575.216 208.425C576.004 209.24 576.283 209.712 576.342 209.858C576.382 209.959 576.425 210.123 576.486 210.636C576.547 211.149 576.62 212.009 576.666 212.494C576.72 213.065 576.764 213.194 576.855 213.351C577.038 213.665 577.385 214.209 577.698 214.796C577.998 215.359 578.446 215.962 578.644 216.192C578.945 216.542 579.06 217.383 579.181 217.545C579.409 217.846 579.608 218.043 580.106 218.772C580.501 219.35 580.965 219.832 581.209 220.245C581.312 220.42 581.35 220.539 581.438 220.828C581.526 221.117 581.656 221.576 581.896 222.185C582.137 222.795 582.484 223.542 582.767 224.142C583.05 224.741 583.259 225.172 583.395 225.484C583.607 225.97 583.683 226.409 583.738 226.853C583.74 227.002 583.739 227.126 583.737 227.227L583.92 227.149C583.92 227.167 583.922 227.704 584.007 229.035C584.059 229.852 584.258 230.932 584.395 231.631C584.589 232.621 584.796 233.098 584.963 233.589C585.409 234.9 585.46 235.673 585.563 236.017C585.652 236.313 586.22 236.371 586.801 236.382C586.999 236.385 587.09 236.223 587.173 236.086C587.535 235.48 587.706 234.435 587.994 233.967C588.133 233.741 588.344 233.629 588.496 233.548L588.501 233.545C589.011 233.273 589.903 233.496 590.148 233.672C590.4 233.853 590.38 234.546 590.214 236.181C590.101 237.289 589.829 238.145 589.81 238.601C589.801 238.835 589.928 238.971 590.039 239.103C590.58 239.75 592.08 240.103 592.189 240.231C592.456 240.546 592.406 241.455 592.373 242.038L592.372 242.047C592.353 242.38 592.047 242.745 591.762 243.096C591.663 243.218 591.527 243.559 591.34 244.143C590.935 245.404 591.16 246.221 591.098 246.511C591.083 246.584 591.052 246.653 591.159 247.889C591.267 249.128 591.509 251.539 591.645 252.84C591.794 254.26 591.827 254.593 591.813 254.95C591.808 255.097 591.781 255.173 591.539 255.718C591.296 256.263 590.832 257.276 590.568 257.836C590.266 258.478 590.156 258.609 590.036 258.734C589.88 258.897 589.496 259.391 588.761 260.669C588.275 261.515 587.694 262.836 587.168 263.834C586.734 264.656 586.371 265.244 586.12 265.629L586.389 265.602C586.324 265.695 585.721 266.252 584.785 266.986C584.002 267.6 583.481 267.895 583.308 268.055C583.196 268.159 582.964 268.346 582.546 268.622C582.114 268.908 581.441 269.142 580.785 269.37L580.734 269.388C580.433 269.493 580.361 270.405 580.325 271.745C580.307 272.413 580.779 273.279 581.104 273.815C581.228 274.02 581.224 274.652 581.328 275.163C581.474 275.881 581.662 276.09 581.767 276.689C581.845 277.132 581.989 277.362 582.149 277.736C582.37 278.253 582.551 278.887 582.767 279.4C583.083 280.148 583.114 280.539 583.191 280.963C583.229 281.168 583.195 281.517 583.107 282.202C583.019 282.888 582.847 283.905 582.758 284.624C582.668 285.342 582.666 285.732 582.7 286.134C582.768 286.94 582.88 287.651 582.875 288.153C582.871 288.168 582.866 288.182 582.862 288.196C583.337 289.267 583.529 290.262 583.333 291.135L583.259 291.442C586.894 292.318 589.984 292.889 592.712 293.173C593.166 293.22 593.611 293.259 594.047 293.29C604.934 294.073 610.091 289.915 622.95 282.093C637.535 273.221 654.623 265.758 671.888 264.579C672.455 264.54 673.021 264.508 673.588 264.483C673.871 264.471 674.154 264.46 674.437 264.451L675 264.525C674.886 263.984 674.704 263.229 674.393 262.258C674.11 261.371 673.956 260.306 673.803 259.24C673.691 258.456 673.645 257.757 673.347 256.428C673.129 255.449 672.738 253.898 672.361 252.268C671.984 250.636 671.632 248.974 671.31 247.779C670.988 246.585 670.705 245.877 670.479 245.17C670.254 244.463 670.092 243.776 669.981 243.07C669.871 242.365 669.814 241.661 669.816 240.319C669.819 238.977 669.87 237.055 669.925 235.842C670.001 234.139 669.816 232.92 670.557 232.027C670.958 231.545 671.568 231.297 671.842 230.456C671.997 229.978 672.148 229.485 671.96 228.984C671.883 228.78 671.773 228.588 671.589 228.534C671.222 228.427 670.519 227.961 669.14 227.348C668.069 226.871 666.94 226.436 666.47 226.132C665.052 225.212 663.545 224.507 663.104 224.168C662.513 223.712 661.658 223.177 661.136 222.602C660.96 222.407 660.68 221.118 660.983 219.105C661.211 217.588 661.477 216.167 661.566 215.403C661.636 214.802 661.822 213.601 661.952 212.939C662.062 212.38 662.106 211.682 661.791 211.448C661.419 211.173 660.879 211.27 658.748 210.791C657.656 210.545 656.69 210.258 655.87 209.728C655.005 209.17 654.479 208.624 654.16 208.375C653.575 207.919 652.083 207.562 651.704 206.95C651.469 206.571 651.14 206.074 651.479 204.124C651.656 203.108 651.774 202.537 652.166 201.97C653.103 200.611 653.809 199.319 654.181 198.72C654.596 198.053 654.977 197.824 656.763 196.923C657.418 196.593 658.041 196.142 658.781 195.584C659.742 194.86 660.082 194.631 660.155 194.532L660.518 194.58C660.518 194.504 660.519 193.47 660.507 191.871C660.496 190.5 660.455 189.374 660.78 188.746C661.092 188.142 661.533 187.957 662.32 187.47C662.829 187.155 663.088 186.24 663.229 185.539C663.296 185.208 663.311 184.924 663.404 184.723C663.506 184.501 663.712 184.361 663.942 184.262C664.251 184.129 665.234 184.143 666.631 184.134C668.61 184.121 669.723 183.748 670.134 183.359C670.493 183.019 670.521 181.054 670.824 179.552C670.966 178.848 671.275 178.434 671.744 177.466C672.287 176.344 672.981 176.039 673.536 175.796L673.543 175.793C673.665 175.739 673.769 175.735 674.815 175.66C675.862 175.585 677.853 175.454 679.043 175.409C680.557 175.352 681.039 175.499 681.295 175.593C681.919 175.822 682.653 177.281 683.174 177.934C683.504 178.348 684.496 178.587 685.477 178.784C686.485 178.771 687.341 178.728 687.899 178.688C688.248 178.675 688.73 178.674 689.26 178.641C689.273 178.641 689.363 178.605 689.51 178.492C690.038 178.089 690.028 177.055 690.119 176.468C690.354 174.943 689.918 174.398 689.583 173.933C689.26 173.486 688.799 172.644 688.558 171.917C688.442 171.565 688.204 170.672 687.707 169.359C687.257 168.173 686.903 167.472 686.846 166.924C686.807 166.543 686.828 165.948 687.035 164.684C687.242 163.419 687.656 161.499 687.897 160.44C688.172 159.235 688.315 158.992 688.457 158.785C688.813 158.266 689.827 157.796 690.831 157.347C691.65 156.98 692.707 156.16 693.235 155.993C694.034 155.741 695.164 156.541 697.197 157.423C698.739 158.091 699.769 159.507 700.412 160.345C700.791 160.839 700.821 162.689 700.576 164.381C700.504 164.879 700.441 165.248 700.462 165.517C700.51 166.146 701.414 166.987 701.645 167.528C701.879 168.075 701.661 168.776 700.902 170.09C700.689 170.458 700.198 171.329 699.423 172.673C698.905 173.57 698.731 174.905 698.419 176.634C698.144 178.154 697.652 178.977 697.443 179.519C696.786 181.219 696.872 181.905 697.068 182.307C697.306 182.795 697.673 183.309 698.342 183.776C699.275 184.428 699.954 184.789 700.974 185.379C702.144 186.054 703.252 187.108 704.021 187.769C704.703 188.356 704.972 189.445 705.517 191.552C705.663 192.222 705.769 192.881 705.845 193.282C705.921 193.683 705.964 193.808 706.008 193.936L706.504 200.236L706.446 200.294C706.514 200.941 706.581 201.715 706.637 202.647C706.78 204.995 706.855 208.311 706.907 210.066C706.962 211.918 707.089 212.175 707.241 212.483C707.603 213.217 708.325 213.758 709.25 215.407C709.876 216.525 711.369 217.382 712.005 218.051C713.587 219.716 714.144 220.457 714.8 220.761C715.57 221.117 716.692 221 717.386 220.952C717.629 220.935 717.635 220.809 717.576 220.604L717.567 220.573C717.414 220.042 717.154 219.141 716.956 218.115C716.819 217.407 716.63 217.039 716.594 216.282C716.512 214.506 716.63 212.929 716.758 212.232C716.99 210.96 718.061 209.921 718.088 209.371C718.12 208.678 718.348 208.061 718.587 207.668C719.122 206.786 720.525 206.069 721.289 205.948C721.537 205.909 721.751 205.916 721.96 205.968C722.857 204.788 724.563 205.237 725.991 203.748C725.874 203.385 725.732 202.908 725.642 202.442C725.558 202.004 726.335 201.711 726.88 201.486C727.244 201.336 727.38 200.941 727.471 200.544C727.565 200.133 727.449 199.796 727.31 199.662C727.109 199.468 726.881 199.371 726.813 199.229C726.562 198.703 726.807 197.525 726.882 196.444C727.004 194.686 726.886 193.517 726.745 193.271C726.483 192.818 726.103 192.5 725.987 192.26C725.784 191.84 725.935 191.293 726.089 190.539C726.321 189.402 726.331 189.196 726.415 189.08C726.677 188.719 727.434 188.868 727.622 188.826C727.828 188.779 727.254 188.523 727.229 188.28C727.156 187.559 727.623 186.835 727.912 186.311C728.064 186.037 728.456 185.792 729.004 185.439C729.762 184.951 730.68 184.654 731.361 184.472C731.738 184.371 732.687 184.38 734.288 184.497C735.068 184.554 735.756 184.84 736.363 185.136C737.518 185.697 738.037 186.224 738.134 186.372C738.23 186.52 738.547 187.163 739.052 188.145C739.416 188.852 739.515 189.33 739.571 190.014C739.774 192.468 739.821 192.864 740.089 193.237C740.185 193.372 740.337 193.432 740.88 193.499C742.201 193.663 743.246 193.661 743.672 193.686C744.816 193.756 745.152 193.823 745.465 193.947C745.588 194.027 745.685 194.142 745.8 194.329L746.099 194.789L746.185 195.308C746.215 195.406 746.247 195.521 746.288 195.652C746.47 196.236 746.849 197.219 747.32 198.263C747.791 199.307 748.359 200.376 748.86 201.247C749.361 202.118 749.777 202.756 750.162 203.489C750.954 204.997 751.262 205.965 751.295 206.295C751.351 206.861 751.346 207.319 751.503 207.812C751.846 208.893 752.171 209.846 752.081 210.327C751.974 210.89 751.277 210.919 751.187 211.067C751.081 211.244 751.094 211.488 751.111 211.695C751.119 211.791 751.169 211.863 751.247 211.932C751.973 212.566 753.389 212.648 753.501 213.068C753.787 214.143 753.604 215.069 753.53 215.612C753.475 216.014 753.347 216.667 753.287 217.515C753.226 218.362 753.227 219.382 753.267 220.078C753.308 220.774 753.389 221.115 753.484 221.307C753.618 221.576 754.09 221.563 754.592 221.545C754.918 221.533 755.092 221.399 755.205 221.29C755.426 221.076 755.359 220.434 755.387 219.83C755.398 219.609 755.472 219.57 755.629 219.55C756.406 219.451 757.276 219.87 757.871 220.201C758.18 220.374 758.212 220.779 758.487 222.741C758.556 223.237 758.508 223.398 758.434 223.552C758.273 223.888 758.026 224.149 757.901 224.454C757.755 224.812 757.534 225.276 757.298 226.114C757.078 226.895 756.979 227.372 756.926 227.97C756.865 228.668 755.934 229.544 755.804 229.881C755.479 230.728 755.713 232.345 755.667 232.77C755.584 233.525 755.829 234.043 755.877 234.403C755.962 235.048 755.95 235.842 755.956 236.201C755.96 236.434 755.832 236.993 755.675 237.909C755.503 238.902 755.477 239.533 755.441 240.384L755.439 240.431C755.406 241.224 755.334 242.725 755.273 243.681C755.189 245.003 755.106 245.565 755.029 246.144C754.807 247.827 754.143 248.581 753.783 249.261C753.317 250.139 753.732 250.875 754.219 251.738L754.245 251.782C754.66 252.539 754.941 253.039 755.129 253.411C781.495 249.439 779.883 243.869 805.84 257.072C809.706 255.396 814.864 251.005 816.938 250.196C829.415 245.326 830.331 248.513 840.788 239.543C846.783 239.134 847.394 239.489 853.131 237.455C864.041 233.584 876.949 237.639 888.345 237.153C908.782 236.28 951.424 229.333 969.881 239.215C977.238 237.922 984.158 237.416 991.75 235.915C996.962 238.469 1001.68 240.933 1007.23 238.307C1011.08 236.483 1012.62 239.691 1015.61 238.846C1022.2 236.983 1019.57 228.77 1021.98 224.023C1025.63 216.157 1035.53 213.039 1043.33 210.059L1052.03 212.789C1052.36 212.367 1052.7 211.948 1053.04 211.532C1057.65 205.964 1067.98 194.772 1074.51 193.811C1082.11 192.695 1089.85 185.559 1095.5 184.934C1104.77 183.908 1121.71 190.878 1128.6 196.65C1131.98 196.419 1135.95 196.395 1139.39 196.284C1145.29 191.444 1150.6 188.171 1157 184.117C1164.07 184.801 1171.26 186.91 1175.89 180.717C1178.52 180.673 1179.27 181.609 1181.86 182.992C1185.18 180.612 1205.56 166.41 1205.34 162.603C1204.51 148.083 1223.03 132.236 1236.86 136.831C1239.35 137.66 1243.72 141.695 1246.38 142.842C1259.82 146.019 1267.59 151.5 1268.87 166.086C1276.06 171.277 1281.92 172.164 1290.39 172.418C1295.27 166.459 1297.76 161.445 1302.41 155.534C1305.28 151.89 1309.96 153.477 1311.57 151.957C1315.81 147.935 1319.36 140.52 1323.8 136.529C1329.22 131.662 1335.56 127.543 1341.07 122.756C1343.75 120.436 1349.27 112.844 1351.48 111.408C1360.96 105.249 1364.02 105.018 1370.76 95.043C1373.75 90.611 1378.31 86.054 1383.05 83.224C1385.72 81.635 1388.47 80.589 1391.29 79.815C1392.32 77.697 1393.71 74.651 1393.97 73.123C1394.29 71.172 1394.5 68.972 1395.51 67.347C1397.22 64.5953 1400.32 64.1367 1401 64.2783C1403.26 64.7473 1404.94 67.761 1408.71 69.252C1412.71 70.829 1416.88 71.006 1418.3 72.188C1418.81 72.613 1419.38 72.917 1419.95 73.129C1420.8 72.887 1421.7 72.632 1422.66 72.362C1424.42 70.85 1425.53 68.45 1427.12 67.416C1431.5 64.571 1436.4 60.8314 1438.74 57.9531C1440.03 56.3663 1439.86 54.7562 1439.74 54.0791C1439.68 53.8127 1440.5 53.7363 1440.64 54.0791C1441.67 56.6744 1440.77 55.4148 1441 55.7363C1441.78 56.7809 1440.67 57.5454 1441 57.7363C1444.75 59.8829 1451.11 56.2275 1452.64 55.4668C1453.41 55.0865 1454.02 54.4696 1454.58 54.6123C1456.07 54.9942 1455.41 57.7115 1456.04 58.5996C1456.68 59.486 1457.97 59.723 1459.19 59.8535C1461.69 60.1234 1465.2 55.4345 1473.06 50.4453C1474.49 49.5403 1474.96 49.5652 1475.32 49.5595C1476.98 49.5341 1478.75 51.2389 1481.3 51.123C1482.15 51.0841 1483.15 50.635 1483.5 50.5918C1483.85 50.5488 1483.52 50.7795 1483.63 50.83C1485.75 51.8298 1488.72 48.7449 1490.57 48.539C1492.24 48.3539 1493.52 49.9638 1497.63 50.3232C1498.14 45.3458 1504.29 40.6222 1507.87 39.4277C1509.03 39.0407 1512.38 38.8019 1518.07 38.3105C1526.32 37.5983 1527.75 35.6354 1527.98 35.2021C1528.08 35.0058 1527.57 34.765 1527.65 34.3847C1528.17 32.0492 1530.28 30.9521 1531.02 28.8642C1531.28 28.1164 1530.62 27.4368 1530.67 27.0576C1531.2 22.4656 1542.14 33.7687 1543.37 34.4121C1544.12 34.8048 1543.77 35.7085 1543.84 36.2226C1543.95 37.0905 1545.54 36.8898 1547.04 36.5859C1547.83 36.3548 1548.62 36.1244 1549.4 35.8925C1551.15 35.0688 1553.13 33.4041 1555.75 31.0273C1557.85 29.1255 1560.54 26.2076 1561.95 25.0097C1563.33 23.8301 1563.33 24.3403 1563.32 24.7919V24.8125C1563.32 25.6209 1563.5 26.3172 1563.83 26.9423C1564.56 28.3052 1567.51 28.3467 1570.38 28.1386C1572.96 27.9518 1576.02 25.0548 1578.27 23.8076C1578.63 23.7006 1578.97 23.6629 1579.15 24.0693C1579.32 24.4761 1579.32 25.3288 1579.32 26.207L1579.4 27.0117C1579.9 26.8621 1580.4 26.7121 1580.9 26.5625L1581.04 25.3251C1581.43 25.4453 1582.36 25.6783 1583.46 25.7998C1584.72 25.4258 1585.97 25.0503 1587.22 24.6757C1587.8 23.2493 1587.89 20.4592 1588.06 16.1796C1588.13 14.5172 1588.72 13.8582 1589.4 13.2294C1590.8 11.9414 1593.37 11.7535 1595.77 12.1191C1598.28 12.503 1601.13 11.9845 1603.64 11.2529C1606.48 10.4262 1608.97 11.4052 1611 11.7255C1612.65 11.9856 1619.91 11.8249 1624.85 11.6855C1625.32 11.6723 1625.65 11.4923 1625.19 11.8203C1624.73 12.1483 1623.45 12.9097 1623.18 13.2333C1622.87 13.6023 1622.75 13.8186 1622.77 13.9082C1623.01 13.8331 1623.26 13.7575 1623.5 13.6826C1626.23 12.1653 1635.62 4.7912 1636.54 3.4541C1636.72 3.1923 1636.36 2.8223 1636.41 2.747C1637.14 1.7743 1638.64 5.1445 1640.08 6.1083C1640.49 6.3762 1641.16 6.2182 1641.62 6.0175C1642.5 5.6329 1643.25 3.4991 1644.29 1.0556C1644.87 -0.308801 1646.42 -0.7008 1649.81 -1.9981C1656.41 -4.528 1659.96 -7.1525 1659.28 -7.3555C1658.48 -7.5903 1657.58 -7.3189 1657.36 -7.2706C1653.66 -6.4808 1667.18 -10.2003 1670.49 -10.8506C1675 -11.7398 1676.22 -13.6408 1677.03 -14.7374C1677.07 -14.7924 1676.97 -14.4631 1677.12 -14.3663C1678.43 -13.5201 1682 -13.4226 1684.24 -12.7139C1684.65 -12.5857 1685.16 -12.6775 1685.58 -12.9581C1688 -14.5892 1687.91 -20.9437 1688.63 -23.8292C1688.73 -24.2235 1689.23 -24.2742 1689.61 -24.1778C1689.98 -24.0813 1690.37 -23.7579 1690.85 -23.7354C1691.33 -23.713 1691.9 -24.0013 1692.32 -24.4678C1694.65 -27.0172 1694.56 -31.6527 1694.95 -33.3692C1695.1 -33.9995 1695.56 -34.0052 1696.05 -33.9991ZM702.249 229.759C701.672 229.728 701.352 229.719 701.276 229.766C701.193 229.817 701.1 229.891 701.034 229.981C700.984 230.051 700.928 230.459 701.031 231.419C701.096 232.021 701.241 232.837 701.285 233.377C701.348 234.167 701.39 234.589 701.266 234.799C701.123 235.042 700.822 235.244 700.454 235.331C700.181 235.395 699.777 235.523 699.727 235.399C699.713 235.363 699.71 235.287 699.721 235.229C699.77 234.976 699.835 234.593 699.916 233.944C699.965 233.554 700.033 233.073 699.994 232.593C699.966 232.252 699.919 231.913 699.759 231.615C699.644 231.399 699.516 231.184 699.414 230.959L699.412 230.953C699.304 230.713 699.219 230.528 698.989 230.476C698.824 230.438 698.64 230.425 698.429 230.498C698.452 230.528 698.471 230.557 698.491 230.582L698.219 230.597C698.216 230.598 698.214 230.601 698.211 230.602C698.163 230.631 698.116 230.653 698.074 230.675C697.111 238.629 696.931 245.704 696.595 253.65C696.458 256.991 695.904 261.182 695.638 264.713C695.719 265.756 695.897 266.714 695.781 267.295C698.319 267.828 701.074 267.915 704.507 267.665C704.803 267.643 705.101 267.62 705.401 267.595L706.305 267.517C711.755 267.018 717.638 266.094 722.543 265.927C722.344 265.161 722.519 264.471 722.99 263.846C722.956 263.679 722.916 263.515 722.865 263.364C722.677 262.813 722.263 261.887 721.981 261.092C721.484 259.687 721.348 258.941 721.241 258.706C721.06 258.31 720.504 257.555 719.818 256.654C719.389 256.091 719.238 255.808 719.126 255.717C718.832 255.479 718.007 255.488 717.558 255.338C717.16 255.205 717.053 254.782 716.882 253.984C716.74 253.329 716.557 252.151 716.453 251.395C716.308 250.345 716.34 249.918 716.352 249.711C716.374 249.331 716.958 249.149 717.506 248.931C717.804 248.812 717.984 248.634 718.074 248.484C718.12 248.407 718.146 248.315 718.171 247.214C718.195 246.113 718.214 244.002 718.228 242.868C718.243 241.735 718.253 241.642 718.259 241.002C718.266 240.361 718.27 239.174 718.213 238.125C718.155 237.076 718.037 236.2 717.913 235.427C717.685 234.007 717.533 233.254 717.523 232.781C717.52 232.645 717.515 232.472 717.51 232.285C717.109 231.833 716.896 231.446 716.907 231.135C716.045 231.57 715.634 231.386 715.403 230.905C715.105 231.21 714.751 231.522 714.314 231.716C713.83 231.93 713.403 232.044 712.902 232.206C712.563 232.316 712.068 232.496 711.588 232.645L711.551 232.656C711.085 232.801 710.648 232.937 710.263 232.962C709.551 233.008 709.091 233.009 709.101 232.917C709.118 232.794 709.202 232.64 709.194 232.419C709.17 231.78 709.088 231.487 708.842 231.19L708.839 231.186C708.375 230.629 708.045 230.232 707.946 230.189C707.811 230.132 707.656 230.063 707.437 230.051C707.104 230.032 706.834 230.004 706.139 229.979C705.518 229.957 704.383 229.926 703.64 229.883C702.898 229.84 702.558 229.775 702.249 229.759ZM320.384 194.945C319.596 199.899 319.222 205.685 318.792 210.746C318.842 214.252 318.115 218.555 317.629 222.092C320.614 223.985 321.045 223.633 322.549 226.363C322.548 227.306 322.546 228.423 322.546 229.715C328.53 236.852 332.795 237.818 332.234 247.974C334.364 248.901 336.523 248.413 338.853 248.147C336.99 249.164 335.164 250.25 333.382 251.401L333.723 252.236C335.248 251.71 335.521 251.567 336.853 250.657L337.662 251.897L338.398 251.999C339.691 250.427 340.065 249.81 341.017 248.008L343.097 248.705C341.441 247.692 340.527 247.029 339.012 245.812L339.591 245.064C343.432 244.933 344.592 244.512 345.925 248.304L346.843 246.665C346.317 243.146 344.714 239.977 344.038 236.855C340.476 220.403 330.218 208.717 320.384 194.945ZM700.587 216.522C699.937 216.513 699.493 216.521 699.426 216.56C699.393 216.579 699.361 216.606 699.338 216.647C699.314 216.689 699.299 216.747 699.238 217.227C699.177 217.709 699.071 218.589 698.965 219.207C698.858 219.825 698.772 220.178 698.69 220.362C698.555 220.667 697.957 221.028 697.798 221.444C697.754 221.558 697.672 221.839 697.666 222.473C697.661 222.89 697.676 223.492 697.705 223.835C697.74 224.261 697.764 224.418 697.816 224.528C697.889 224.682 698.721 225.269 698.429 225.364C698.416 225.368 698.371 225.349 698.374 225.4C698.377 225.453 698.413 225.582 698.466 225.646C698.613 225.826 698.899 226.001 699.079 226.397C699.177 226.613 699.466 227.034 699.788 227.713C700.102 228.375 700.277 228.744 700.358 228.79C700.434 228.833 700.641 228.902 701.536 228.914C702.015 228.921 702.788 228.908 703.424 228.893C704.059 228.878 704.544 228.876 704.851 228.839C705.289 228.786 705.984 228.831 706.277 228.603C706.31 228.578 706.341 228.546 706.345 228.491C706.355 228.364 706.354 228.231 706.308 228.093C706.195 227.747 706.161 227.43 706.352 227.121C706.728 226.512 706.93 226.267 707.38 226.144C707.749 226.044 708.007 225.973 708.187 225.766C708.374 225.551 708.872 225.219 708.99 224.872C709.062 224.658 709.072 224.317 709.179 224.213C709.314 224.082 709.765 223.822 710.017 223.268C709.956 222.946 709.893 222.612 709.803 222.26C709.336 222.904 708.757 224.142 708.575 224.075C708.212 223.897 707.984 223.749 707.722 223.591C707.394 223.366 707.146 223.181 706.938 223.108C706.631 223 706.163 222.861 705.753 222.562C705.427 222.326 705.084 222.096 704.782 221.888C704.641 221.79 704.417 221.555 703.869 220.894C703.498 220.447 702.946 219.79 702.663 219.413C702.33 218.971 702.263 218.816 702.082 218.428C701.935 218.114 701.686 217.578 701.525 217.269C701.317 216.869 701.222 216.717 701.113 216.649C701.019 216.591 700.902 216.527 700.587 216.522ZM343.703 186.602C334.538 192.084 333.014 193.465 322.654 195.432L337.297 216.461C338.94 219.002 339.479 220.765 341.913 221.913C347.057 216.983 344.219 206.222 342.108 200.331C347.57 195.022 342.402 194.023 343.703 186.602ZM242.936 204.943L242.794 206.144C245.147 206.756 246.378 206.821 248.755 206.992L249.513 207.486C248.919 204.647 248.455 204.192 246.007 202.56L242.936 204.943ZM240.874 193.82C241.749 196.559 241.94 197.189 244.03 199.205L244.005 200.983C240.365 202.947 241.144 201.068 239.18 203.822L239.52 204.884L240.992 204.899C243.103 203.465 245.826 202.01 246.69 199.739C246.19 197.298 243.172 194.712 240.874 193.82Z" fill="#161822"/>
</svg>
