<svg xmlns="http://www.w3.org/2000/svg" viewBox="0 0 600 700" preserveAspectRatio="none"><g transform="translate(600 0) scale(-1 1)"><path d="M0 0 H600 V452.0 L600.0 452.0 L591.7 461.6 L583.3 466.1 L575.0 461.4 L566.7 476.9 L558.3 482.7 L550.0 487.7 L541.7 493.9 L533.3 499.0 L525.0 509.4 L516.7 509.2 L508.3 514.5 L500.0 518.2 L491.7 521.3 L483.3 523.6 L475.0 524.2 L466.7 525.5 L458.3 531.1 L450.0 540.9 L441.7 548.5 L433.3 551.9 L425.0 562.5 L416.7 569.8 L408.3 564.7 L400.0 571.0 L391.7 574.4 L383.3 580.2 L375.0 585.9 L366.7 582.1 L358.3 593.0 L350.0 597.2 L341.7 595.0 L333.3 602.6 L325.0 602.3 L316.7 605.1 L308.3 613.6 L300.0 615.9 L291.7 619.2 L283.3 618.8 L275.0 617.1 L266.7 621.3 L258.3 622.6 L250.0 631.0 L241.7 626.7 L233.3 633.4 L225.0 630.5 L216.7 630.1 L208.3 633.8 L200.0 635.3 L191.7 636.1 L183.3 634.5 L175.0 638.8 L166.7 644.4 L158.3 648.4 L150.0 643.3 L141.7 650.4 L133.3 646.9 L125.0 646.3 L116.7 651.0 L108.3 654.0 L100.0 652.0 L91.7 651.5 L83.3 651.6 L75.0 649.8 L66.7 648.8 L58.3 654.3 L50.0 649.7 L41.7 650.3 L33.3 648.6 L25.0 651.3 L16.7 653.7 L8.3 653.6 L0.0 654.0 Z" fill="#000"/></g></svg>
